<mxfile host="app.diagrams.net" modified="2021-11-10T03:26:56.107Z" agent="5.0 (Windows NT 10.0; Win64; x64) AppleWebKit/537.36 (KHTML, like Gecko) Chrome/95.0.4638.69 Safari/537.36" etag="6A2ezOyAkWTFN2iS19b9" version="15.7.1" type="github">
  <diagram id="C5RBs43oDa-KdzZeNtuy" name="Page-1">
    <mxGraphModel dx="1396" dy="794" grid="1" gridSize="10" guides="1" tooltips="1" connect="1" arrows="1" fold="1" page="1" pageScale="1" pageWidth="827" pageHeight="1169" math="0" shadow="0">
      <root>
        <mxCell id="WIyWlLk6GJQsqaUBKTNV-0" />
        <mxCell id="WIyWlLk6GJQsqaUBKTNV-1" parent="WIyWlLk6GJQsqaUBKTNV-0" />
        <mxCell id="q6j4fEdKhtR89-3dIr9l-3" style="edgeStyle=orthogonalEdgeStyle;rounded=0;orthogonalLoop=1;jettySize=auto;html=1;entryX=0;entryY=0.5;entryDx=0;entryDy=0;" edge="1" parent="WIyWlLk6GJQsqaUBKTNV-1" target="q6j4fEdKhtR89-3dIr9l-2">
          <mxGeometry relative="1" as="geometry">
            <mxPoint x="100" y="991" as="sourcePoint" />
          </mxGeometry>
        </mxCell>
        <mxCell id="q6j4fEdKhtR89-3dIr9l-0" value="配置文件&lt;br&gt;xml&lt;br&gt;json&lt;br&gt;yaml" style="whiteSpace=wrap;html=1;aspect=fixed;fillColor=#0050ef;fontColor=#ffffff;strokeColor=#001DBC;" vertex="1" parent="WIyWlLk6GJQsqaUBKTNV-1">
          <mxGeometry x="20" y="950" width="80" height="80" as="geometry" />
        </mxCell>
        <mxCell id="q6j4fEdKhtR89-3dIr9l-1" value="IOC 容器" style="rounded=1;whiteSpace=wrap;html=1;" vertex="1" parent="WIyWlLk6GJQsqaUBKTNV-1">
          <mxGeometry x="308" y="290" width="640" height="810" as="geometry" />
        </mxCell>
        <mxCell id="q6j4fEdKhtR89-3dIr9l-2" value="BeanDefinitionReader&lt;br&gt;(读取&lt;br&gt;配置文件的抽象接口)" style="rounded=0;whiteSpace=wrap;html=1;fillColor=#6a00ff;fontColor=#ffffff;strokeColor=#3700CC;" vertex="1" parent="WIyWlLk6GJQsqaUBKTNV-1">
          <mxGeometry x="170" y="961" width="120" height="60" as="geometry" />
        </mxCell>
        <mxCell id="q6j4fEdKhtR89-3dIr9l-6" value="BeanDefinition" style="rounded=0;whiteSpace=wrap;html=1;fillColor=#a20025;fontColor=#ffffff;strokeColor=#6F0000;" vertex="1" parent="WIyWlLk6GJQsqaUBKTNV-1">
          <mxGeometry x="390" y="960" width="120" height="60" as="geometry" />
        </mxCell>
        <mxCell id="q6j4fEdKhtR89-3dIr9l-10" value="BeanFactory" style="rounded=0;whiteSpace=wrap;html=1;align=center;labelPosition=center;verticalLabelPosition=middle;verticalAlign=middle;" vertex="1" parent="WIyWlLk6GJQsqaUBKTNV-1">
          <mxGeometry x="320" y="130" width="550" height="150" as="geometry" />
        </mxCell>
        <mxCell id="q6j4fEdKhtR89-3dIr9l-26" value="" style="edgeStyle=orthogonalEdgeStyle;rounded=0;orthogonalLoop=1;jettySize=auto;html=1;" edge="1" parent="WIyWlLk6GJQsqaUBKTNV-1" source="q6j4fEdKhtR89-3dIr9l-16" target="q6j4fEdKhtR89-3dIr9l-21">
          <mxGeometry relative="1" as="geometry" />
        </mxCell>
        <mxCell id="q6j4fEdKhtR89-3dIr9l-16" value="实例化Bean" style="rounded=0;whiteSpace=wrap;html=1;fillColor=#d5e8d4;strokeColor=#82b366;" vertex="1" parent="WIyWlLk6GJQsqaUBKTNV-1">
          <mxGeometry x="650" y="380" width="120" height="60" as="geometry" />
        </mxCell>
        <mxCell id="q6j4fEdKhtR89-3dIr9l-19" value="" style="html=1;shadow=0;dashed=0;align=center;verticalAlign=middle;shape=mxgraph.arrows2.arrow;dy=0.6;dx=40;direction=south;notch=0;" vertex="1" parent="WIyWlLk6GJQsqaUBKTNV-1">
          <mxGeometry x="670" y="280" width="70" height="100" as="geometry" />
        </mxCell>
        <mxCell id="q6j4fEdKhtR89-3dIr9l-20" value="" style="html=1;shadow=0;dashed=0;align=center;verticalAlign=middle;shape=mxgraph.arrows2.arrow;dy=0.6;dx=40;notch=0;" vertex="1" parent="WIyWlLk6GJQsqaUBKTNV-1">
          <mxGeometry x="290" y="971" width="100" height="40" as="geometry" />
        </mxCell>
        <mxCell id="q6j4fEdKhtR89-3dIr9l-28" value="" style="edgeStyle=orthogonalEdgeStyle;rounded=0;orthogonalLoop=1;jettySize=auto;html=1;startArrow=none;" edge="1" parent="WIyWlLk6GJQsqaUBKTNV-1" source="q6j4fEdKhtR89-3dIr9l-39" target="q6j4fEdKhtR89-3dIr9l-27">
          <mxGeometry relative="1" as="geometry" />
        </mxCell>
        <mxCell id="q6j4fEdKhtR89-3dIr9l-21" value="填充属性" style="rounded=0;whiteSpace=wrap;html=1;fillColor=#e1d5e7;strokeColor=#9673a6;" vertex="1" parent="WIyWlLk6GJQsqaUBKTNV-1">
          <mxGeometry x="650" y="530" width="120" height="60" as="geometry" />
        </mxCell>
        <mxCell id="q6j4fEdKhtR89-3dIr9l-31" value="" style="edgeStyle=orthogonalEdgeStyle;rounded=0;orthogonalLoop=1;jettySize=auto;html=1;" edge="1" parent="WIyWlLk6GJQsqaUBKTNV-1" source="q6j4fEdKhtR89-3dIr9l-27" target="q6j4fEdKhtR89-3dIr9l-30">
          <mxGeometry relative="1" as="geometry" />
        </mxCell>
        <mxCell id="q6j4fEdKhtR89-3dIr9l-27" value="初始化bean&lt;br&gt;执行init方法" style="rounded=0;whiteSpace=wrap;html=1;fillColor=#008a00;fontColor=#ffffff;strokeColor=#005700;" vertex="1" parent="WIyWlLk6GJQsqaUBKTNV-1">
          <mxGeometry x="650" y="760" width="120" height="60" as="geometry" />
        </mxCell>
        <mxCell id="q6j4fEdKhtR89-3dIr9l-29" value="" style="html=1;shadow=0;dashed=0;align=center;verticalAlign=middle;shape=mxgraph.arrows2.arrow;dy=0.6;dx=40;direction=north;notch=0;" vertex="1" parent="WIyWlLk6GJQsqaUBKTNV-1">
          <mxGeometry x="400" y="280" width="70" height="680" as="geometry" />
        </mxCell>
        <mxCell id="q6j4fEdKhtR89-3dIr9l-30" value="完整的bean" style="rounded=0;whiteSpace=wrap;html=1;fillColor=#d80073;fontColor=#ffffff;strokeColor=#A50040;" vertex="1" parent="WIyWlLk6GJQsqaUBKTNV-1">
          <mxGeometry x="650" y="961" width="120" height="60" as="geometry" />
        </mxCell>
        <mxCell id="q6j4fEdKhtR89-3dIr9l-32" value="Constructor cstr = clazz.getDeclareContructor();&lt;br&gt;Object o = cstr.newInstance();" style="text;html=1;strokeColor=#d79b00;fillColor=#ffe6cc;align=center;verticalAlign=middle;whiteSpace=wrap;rounded=0;" vertex="1" parent="WIyWlLk6GJQsqaUBKTNV-1">
          <mxGeometry x="610" y="207.5" width="260" height="72.5" as="geometry" />
        </mxCell>
        <mxCell id="q6j4fEdKhtR89-3dIr9l-36" value="BeanFactoryPostProcessor" style="rounded=0;whiteSpace=wrap;html=1;align=center;fillColor=#f8cecc;strokeColor=#b85450;" vertex="1" parent="WIyWlLk6GJQsqaUBKTNV-1">
          <mxGeometry x="362.5" y="557" width="175" height="55" as="geometry" />
        </mxCell>
        <mxCell id="q6j4fEdKhtR89-3dIr9l-37" value="BeanFactoryPostProcessor" style="rounded=0;whiteSpace=wrap;html=1;align=center;fillColor=#f8cecc;strokeColor=#b85450;" vertex="1" parent="WIyWlLk6GJQsqaUBKTNV-1">
          <mxGeometry x="362.5" y="620" width="175" height="55" as="geometry" />
        </mxCell>
        <mxCell id="q6j4fEdKhtR89-3dIr9l-38" value="BeanFactoryPostProcessor" style="rounded=0;whiteSpace=wrap;html=1;align=center;fillColor=#f8cecc;strokeColor=#b85450;" vertex="1" parent="WIyWlLk6GJQsqaUBKTNV-1">
          <mxGeometry x="362.5" y="690" width="175" height="55" as="geometry" />
        </mxCell>
        <mxCell id="q6j4fEdKhtR89-3dIr9l-40" value="BeanPostProcessor:after()" style="rounded=0;whiteSpace=wrap;html=1;align=center;fillColor=#dae8fc;strokeColor=#6c8ebf;" vertex="1" parent="WIyWlLk6GJQsqaUBKTNV-1">
          <mxGeometry x="567" y="860" width="260" height="50" as="geometry" />
        </mxCell>
        <mxCell id="q6j4fEdKhtR89-3dIr9l-39" value="BeanPostProcessor:before()" style="rounded=0;whiteSpace=wrap;html=1;align=center;fillColor=#dae8fc;strokeColor=#6c8ebf;" vertex="1" parent="WIyWlLk6GJQsqaUBKTNV-1">
          <mxGeometry x="580" y="622.5" width="260" height="50" as="geometry" />
        </mxCell>
        <mxCell id="q6j4fEdKhtR89-3dIr9l-41" value="" style="edgeStyle=orthogonalEdgeStyle;rounded=0;orthogonalLoop=1;jettySize=auto;html=1;endArrow=none;" edge="1" parent="WIyWlLk6GJQsqaUBKTNV-1" source="q6j4fEdKhtR89-3dIr9l-21" target="q6j4fEdKhtR89-3dIr9l-39">
          <mxGeometry relative="1" as="geometry">
            <mxPoint x="705" y="600" as="sourcePoint" />
            <mxPoint x="705" y="745" as="targetPoint" />
          </mxGeometry>
        </mxCell>
      </root>
    </mxGraphModel>
  </diagram>
</mxfile>
